# xmcd
#
# Track frame offsets: 
#        150
#        3292
#        10761
#        18608
#        38273
#        56916
#        70352
#        84107
#        101615
#        114639
#        123689
#        139096
#
# Disc length: 1989 seconds
#
# Revision: 0
# Processed by: cddbd v1.5.2PL0 Copyright (c) Steve Scherf et al.
# Submitted via: ExactAudioCopy v1.2
#
DISCID=9507c30c
DTITLE=Roy Lee Jones - Devil's in the Whiskey
DYEAR=2018
DGENRE=Blues
TTITLE0=Long John
TTITLE1=Devil's in the Whiskey
TTITLE2=Last Night
TTITLE3=Tonight
TTITLE4=Tangled Up
TTITLE5=Patience
TTITLE6=Tired Bones
TTITLE7=So Tired
TTITLE8=Gotta Move Quick
TTITLE9=Just For
TTITLE10=Spinnin
TTITLE11=I Don't Know
EXTD=
EXTT0=
EXTT1=
EXTT2=
EXTT3=
EXTT4=
EXTT5=
EXTT6=
EXTT7=
EXTT8=
EXTT9=
EXTT10=
EXTT11=
PLAYORDER=
